<?xml version="1.0" encoding="utf-8"?>
<!-- Generator: Adobe Illustrator 21.1.0, SVG Export Plug-In . SVG Version: 6.00 Build 0)  -->
<svg version="1.1" id="Layer_1" xmlns="http://www.w3.org/2000/svg" xmlns:xlink="http://www.w3.org/1999/xlink" x="0px" y="0px"
	 viewBox="0 0 86.5 61.6" style="enable-background:new 0 0 86.5 61.6;" xml:space="preserve">
<style type="text/css">
	.st0{fill:#969AA1;}
</style>
<path class="st0" d="M41.5,20.8C41.5,9.3,32.2,0,20.8,0S0,9.3,0,20.8C0,32,8.9,41.1,20,41.5C16,49.8,12.2,51.7,2.3,61.6
	C20.3,61.6,41.5,45.9,41.5,20.8z"/>
<path class="st0" d="M86.5,20.8C86.5,9.3,77.2,0,65.8,0S45,9.3,45,20.8c0,11.2,8.9,20.4,20.1,20.7c-4.1,8.3-7.9,10.2-17.8,20.1
	C65.3,61.6,86.5,45.9,86.5,20.8z"/>
</svg>
